<svg xmlns="http://www.w3.org/2000/svg" viewBox="0 0 471 569">
  <g transform="translate(0,569) scale(0.1,-0.1)" fill="#5b8def">
    <path d="M4637 5604 c-34 -72 -111 -197 -170 -277 -137 -185 -295 -313 -522 -423 -232 -112 -423 -167 -710 -204 -310 -40 -436 -72 -600 -153 -477 -234 -703 -768 -580 -1374 27 -129 54 -212 111 -331 l53 -114 68 89 c99 130 157 202 163 202 10 0 125 -141 158 -192 49 -77 65 -144 60 -247 -3 -69 -10 -98 -33 -146 -40 -83 -140 -179 -235 -226 -173 -85 -273 -105 -590 -118 -480 -20 -647 -53 -905 -181 -556 -275 -854 -889 -855 -1758 l0 -113 73 103 c324 463 631 729 1013 879 219 86 399 115 759 124 127 3 282 11 345 17 472 43 875 235 1089 519 112 150 191 327 236 530 26 116 31 391 11 520 -40 254 -157 505 -371 799 -53 73 -95 134 -93 136 1 1 35 19 74 38 87 44 158 62 294 77 200 23 375 68 495 128 319 159 544 476 633 892 46 211 70 540 55 739 l-8 104 -18 -39z"/>
  </g>
</svg>
